<?xml version="1.0" encoding="UTF-8"?>
<svg width="24px" height="24px" viewBox="0 0 24 24" version="1.1" xmlns="http://www.w3.org/2000/svg" xmlns:xlink="http://www.w3.org/1999/xlink">
    <!-- Generator: sketchtool 52.2 (67145) - http://www.bohemiancoding.com/sketch -->
    <title>ContributorsIconColored@1x</title>
    <desc>Created with sketchtool.</desc>
    <defs>
        <circle id="path-1" cx="9" cy="9" r="9"></circle>
    </defs>
    <g id="Page-1" stroke="none" stroke-width="1" fill="none" fill-rule="evenodd">
        <g id="ContributorsIconColored">
            <g id="Group-3" transform="translate(3.000000, 3.000000)">
                <mask id="mask-2" fill="white">
                    <use xlink:href="#path-1"></use>
                </mask>
                <circle stroke="#80BE86" stroke-width="1.5" cx="9" cy="9" r="9.75"></circle>
                <path d="M7.13513514,12.2518529 L7.13513514,13.227232 C7.13513514,13.6049892 6.77554747,13.9603764 6.33457184,14.0206564 L4.5362811,14.2664773 C3.2101648,14.4477534 2.07468209,15.5119827 2,16.6451613 C2,16.6451613 6.24934896,20 8.87402344,20 C11.249349,20 17,16.6451613 17,16.6451613 C16.6268346,15.5756395 15.2540824,14.5424305 13.9334036,14.3373516 L11.9859198,14.0349405 C11.5458976,13.9666125 11.1891892,13.6059135 11.1891892,13.227232 L11.1891892,12.2518529 C11.6542236,11.8001258 11.7927548,11.1067445 11.9547472,10.3463308 C12.2101474,10.3967207 12.2856106,10.1106867 12.4252644,9.5568425 C12.5649182,9.0029983 13.0019226,8.43543711 12.6067863,8.3646375 C12.5542505,8.35522426 12.5047304,8.3547685 12.4580247,8.36235642 L12.6085535,6.50129577 C12.6714005,5.72428792 12.272917,4.86506236 11.691723,4.65747741 C10.7286872,4.31351008 10.4313705,4.13111817 9.83249314,4.03284076 C9.23361582,3.93456336 8.64603568,4.07238809 8.02347709,4.24103443 C7.4009185,4.40968076 6.83654151,4.84842822 6.3712616,5.08510042 C5.90598168,5.32177263 5.66369051,5.85740177 5.71577082,6.50129577 L5.86621271,8.36128133 C5.82156898,8.35483623 5.77437558,8.35569369 5.72445971,8.3646375 C5.32932336,8.43543711 5.76632778,9.0029983 5.90598158,9.5568425 C6.04563537,10.1106867 6.12109857,10.3967207 6.34010506,10.3574796 C6.53629029,11.108088 6.67055135,11.8005635 7.13513514,12.2518529 Z" id="Rectangle-892" stroke="#80BE86" stroke-width="1.5" mask="url(#mask-2)"></path>
            </g>
        </g>
    </g>
</svg>