<?xml version="1.0" encoding="UTF-8"?>
<svg width="24px" height="24px" viewBox="0 0 24 24" version="1.1" xmlns="http://www.w3.org/2000/svg" xmlns:xlink="http://www.w3.org/1999/xlink">
    <!-- Generator: sketchtool 52.2 (67145) - http://www.bohemiancoding.com/sketch -->
    <title>PlanProjectIconColored@1x</title>
    <desc>Created with sketchtool.</desc>
    <g id="Page-1" stroke="none" stroke-width="1" fill="none" fill-rule="evenodd">
        <g id="PlanProjectIconColored" stroke="#2A6F9D" stroke-width="1.5">
            <g id="F---Strip-Planner" transform="translate(1.000000, 4.000000)">
                <path d="M10.8531108,3.23976294 L10.8531108,2.95825066 L11.3880348,2.79812635 C12.2269647,2.54700083 12.813254,1.77141967 12.813254,0.881743746 C12.813254,-0.222825753 11.9178235,-1.11825625 10.813254,-1.11825625 C9.70868453,-1.11825625 8.81325403,-0.222825753 8.81325403,0.881743746 C8.81325403,1.79335327 9.42868594,2.58322403 10.2962765,2.81447725 L10.8531108,2.96289949 L10.8531108,3.23976294 Z M10.4781108,8.18674597 L5.85311082,8.18674597 L5.85311082,13.5237246 L5.85311082,8.18674597 L10.4781108,8.18674597 Z M5.85311082,13.5237246 L5.85311082,13.800588 L5.2962765,13.9490102 C4.42868594,14.1802635 3.81325403,14.9701342 3.81325403,15.8817437 C3.81325403,16.9863132 4.70868453,17.8817437 5.81325403,17.8817437 C6.91782353,17.8817437 7.81325403,16.9863132 7.81325403,15.8817437 C7.81325403,14.9920678 7.22696471,14.2164867 6.38803481,13.9653611 L5.85311082,13.8052368 L5.85311082,13.5237246 Z M11.2281108,8.18674597 L15.8531108,8.18674597 L15.8531108,8.56174597 L15.8531108,8.18674597 L11.2281108,8.18674597 Z M15.8531108,8.56174597 L15.8531108,13.800588 L15.2962765,13.9490102 C14.4286859,14.1802635 13.813254,14.9701342 13.813254,15.8817437 C13.813254,16.9863132 14.7086845,17.8817437 15.813254,17.8817437 C16.9178235,17.8817437 17.813254,16.9863132 17.813254,15.8817437 C17.813254,14.9920678 17.2269647,14.2164867 16.3880348,13.9653611 L15.8531108,13.8052368 L15.8531108,8.56174597 Z" id="Oval-7" transform="translate(10.813254, 8.381744) rotate(-90.000000) translate(-10.813254, -8.381744) "></path>
                <circle id="Oval-7" fill="#FFFFFF" cx="18.313254" cy="13.3817437" r="2"></circle>
                <circle id="Path" fill="#FFFFFF" cx="18.313254" cy="3.38174375" r="2"></circle>
                <circle id="Path" fill="#FFFFFF" cx="3.31325403" cy="8.38174375" r="2"></circle>
            </g>
        </g>
    </g>
</svg>