<?xml version="1.0" encoding="UTF-8"?>
<svg width="24px" height="24px" viewBox="0 0 24 24" version="1.1" xmlns="http://www.w3.org/2000/svg" xmlns:xlink="http://www.w3.org/1999/xlink">
    <!-- Generator: sketchtool 52.2 (67145) - http://www.bohemiancoding.com/sketch -->
    <title>PlanProjectIcon@1x</title>
    <desc>Created with sketchtool.</desc>
    <g id="Page-1" stroke="none" stroke-width="1" fill="none" fill-rule="evenodd">
        <g id="PlanProjectIcon" stroke="#FFFFFF" stroke-width="1.5">
            <g id="F---Strip-Planner" transform="translate(0.000000, 5.000000)">
                <path d="M11.8531108,4.48796055 L11.8531108,2.23976294 L11.8531108,4.48796055 Z M11.8531108,2.23976294 L11.8531108,1.95825066 L12.3880348,1.79812635 C13.2269647,1.54700083 13.813254,0.771419674 13.813254,-0.118256254 C13.813254,-1.22282575 12.9178235,-2.11825625 11.813254,-2.11825625 C10.7086845,-2.11825625 9.81325403,-1.22282575 9.81325403,-0.118256254 C9.81325403,0.79335327 10.4286859,1.58322403 11.2962765,1.81447725 L11.8531108,1.96289949 L11.8531108,2.23976294 Z M11.8531108,6.81174597 L11.8531108,7.18674597 L11.4781108,7.18674597 L16.8531108,7.18674597 L16.8531108,7.56174597 L16.8531108,7.18674597 L11.8531108,7.18674597 L11.8531108,6.81174597 Z M11.4781108,7.18674597 L6.85311082,7.18674597 L6.85311082,12.5237246 L6.85311082,7.18674597 L11.4781108,7.18674597 Z M6.85311082,12.5237246 L6.85311082,12.800588 L6.2962765,12.9490102 C5.42868594,13.1802635 4.81325403,13.9701342 4.81325403,14.8817437 C4.81325403,15.9863132 5.70868453,16.8817437 6.81325403,16.8817437 C7.91782353,16.8817437 8.81325403,15.9863132 8.81325403,14.8817437 C8.81325403,13.9920678 8.22696471,13.2164867 7.38803481,12.9653611 L6.85311082,12.8052368 L6.85311082,12.5237246 Z M16.8531108,7.56174597 L16.8531108,12.800588 L16.2962765,12.9490102 C15.4286859,13.1802635 14.813254,13.9701342 14.813254,14.8817437 C14.813254,15.9863132 15.7086845,16.8817437 16.813254,16.8817437 C17.9178235,16.8817437 18.813254,15.9863132 18.813254,14.8817437 C18.813254,13.9920678 18.2269647,13.2164867 17.3880348,12.9653611 L16.8531108,12.8052368 L16.8531108,7.56174597 Z" id="Oval-7" transform="translate(11.813254, 7.381744) rotate(-90.000000) translate(-11.813254, -7.381744) "></path>
            </g>
        </g>
    </g>
</svg>