<?xml version="1.0" encoding="UTF-8"?>
<svg width="24px" height="24px" viewBox="0 0 24 24" version="1.1" xmlns="http://www.w3.org/2000/svg" xmlns:xlink="http://www.w3.org/1999/xlink">
    <!-- Generator: sketchtool 52.2 (67145) - http://www.bohemiancoding.com/sketch -->
    <title>ReferenceLibraryIconColored@1x</title>
    <desc>Created with sketchtool.</desc>
    <defs>
        <path d="M9.994,18.932 L4,18.932 L4,12.938 C4,11.8579946 4.11699883,10.8410048 4.351,9.887 C4.58500117,8.93299523 4.94499757,8.0960036 5.431,7.376 C5.91700243,6.6559964 6.53799622,6.08000216 7.294,5.648 C8.05000378,5.21599784 8.93199496,5 9.94,5 L9.94,7.7 C9.32799694,7.7 8.82400198,7.85299847 8.428,8.159 C8.03199802,8.46500153 7.70800126,8.86999748 7.456,9.374 C7.20399874,9.87800252 7.03300045,10.4449968 6.943,11.075 C6.85299955,11.7050031 6.808,12.3259969 6.808,12.938 L9.994,12.938 L9.994,18.932 Z M19.876,18.932 L13.882,18.932 L13.882,12.938 C13.882,11.8579946 13.9989988,10.8410048 14.233,9.887 C14.4670012,8.93299523 14.8269976,8.0960036 15.313,7.376 C15.7990024,6.6559964 16.4199962,6.08000216 17.176,5.648 C17.9320038,5.21599784 18.813995,5 19.822,5 L19.822,7.7 C19.2099969,7.7 18.706002,7.85299847 18.31,8.159 C17.913998,8.46500153 17.5900013,8.86999748 17.338,9.374 C17.0859987,9.87800252 16.9150005,10.4449968 16.825,11.075 C16.7349996,11.7050031 16.69,12.3259969 16.69,12.938 L19.876,12.938 L19.876,18.932 Z" id="path-1"></path>
    </defs>
    <g id="Page-1" stroke="none" stroke-width="1" fill="none" fill-rule="evenodd">
        <g id="ReferenceLibraryIconColored" fill="#FFFFFF">
            <g id="“">
                <use fill-opacity="0" xlink:href="#path-1"></use>
                <use xlink:href="#path-1"></use>
            </g>
        </g>
    </g>
</svg>